<svg width="24" height="24" viewBox="0 0 24 24" fill="none" xmlns="http://www.w3.org/2000/svg">
<path d="M3.90719 16.16C3.44852 16.16 3.06985 16.0853 2.77119 15.936C2.48319 15.7867 2.25385 15.5893 2.08319 15.344C1.92319 15.0987 1.80585 14.8267 1.73119 14.528C1.65652 14.2293 1.60852 13.9307 1.58719 13.632C1.56585 13.3227 1.55519 13.04 1.55519 12.784V9.424H3.13919V12.784C3.13919 13.1147 3.17119 13.4293 3.23519 13.728C3.29919 14.016 3.43252 14.256 3.63519 14.448C3.84852 14.6293 4.16852 14.72 4.59519 14.72C5.01119 14.72 5.32585 14.6293 5.53919 14.448C5.75252 14.256 5.89652 14.016 5.97119 13.728C6.04585 13.4293 6.08852 13.1307 6.09919 12.832V9.424H7.77919V16H6.38719L6.11519 14.752H6.08319C6.06185 14.816 6.00852 14.9227 5.92319 15.072C5.83785 15.2213 5.70985 15.3813 5.53919 15.552C5.37919 15.7227 5.16585 15.8667 4.89919 15.984C4.63252 16.1013 4.30185 16.16 3.90719 16.16ZM3.26719 8.672C2.87252 8.672 2.60585 8.576 2.46719 8.384C2.33919 8.18133 2.27519 7.94667 2.27519 7.68C2.27519 7.424 2.34452 7.2 2.48319 7.008C2.62185 6.80533 2.88319 6.704 3.26719 6.704C3.66185 6.704 3.91785 6.80533 4.03519 7.008C4.16319 7.2 4.22719 7.424 4.22719 7.68C4.22719 7.94667 4.16319 8.18133 4.03519 8.384C3.91785 8.576 3.66185 8.672 3.26719 8.672ZM6.16319 8.672C5.77919 8.672 5.51785 8.576 5.37919 8.384C5.24052 8.18133 5.17119 7.94667 5.17119 7.68C5.17119 7.424 5.24052 7.2 5.37919 7.008C5.51785 6.80533 5.77919 6.704 6.16319 6.704C6.55785 6.704 6.81919 6.80533 6.94719 7.008C7.07519 7.2 7.13919 7.424 7.13919 7.68C7.13919 7.94667 7.07519 8.18133 6.94719 8.384C6.81919 8.576 6.55785 8.672 6.16319 8.672ZM12.0022 16.16C11.3835 16.16 10.8235 16.0373 10.3222 15.792C9.82085 15.536 9.42085 15.1627 9.12219 14.672C8.82352 14.1707 8.67419 13.5627 8.67419 12.848C8.69552 12.1333 8.85019 11.52 9.13819 11.008C9.43685 10.496 9.83685 10.1013 10.3382 9.824C10.8395 9.54667 11.4049 9.408 12.0342 9.408C12.6955 9.408 13.2555 9.536 13.7142 9.792C14.1729 10.0373 14.5302 10.3573 14.7862 10.752C15.0422 11.1467 15.1862 11.5627 15.2182 12H13.7142C13.6395 11.616 13.4635 11.3227 13.1862 11.12C12.9089 10.9173 12.5409 10.816 12.0822 10.816C11.6982 10.816 11.3729 10.896 11.1062 11.056C10.8395 11.216 10.6315 11.44 10.4822 11.728C10.3435 12.0053 10.2742 12.336 10.2742 12.72C10.2742 13.3387 10.4235 13.8347 10.7222 14.208C11.0315 14.5707 11.4849 14.752 12.0822 14.752C12.4875 14.752 12.8395 14.6453 13.1382 14.432C13.4475 14.2187 13.6395 13.904 13.7142 13.488H15.2182C15.1862 13.9467 15.0369 14.3787 14.7702 14.784C14.5142 15.1893 14.1515 15.52 13.6822 15.776C13.2235 16.032 12.6635 16.16 12.0022 16.16ZM19.2462 16.16C18.4889 16.16 17.8702 16 17.3902 15.68C16.9209 15.3493 16.5689 14.928 16.3342 14.416C16.1102 13.904 15.9929 13.3707 15.9822 12.816C15.9715 12.1547 16.0942 11.568 16.3502 11.056C16.6169 10.5333 16.9902 10.128 17.4702 9.84C17.9609 9.54133 18.5369 9.392 19.1982 9.392C19.7849 9.392 20.3129 9.52 20.7822 9.776C21.2515 10.032 21.6195 10.3893 21.8862 10.848C22.1635 11.3067 22.3075 11.856 22.3182 12.496C22.3182 12.5173 22.3182 12.5813 22.3182 12.688C22.3182 12.784 22.3182 12.8587 22.3182 12.912H17.5342C17.5342 13.52 17.6835 13.9893 17.9822 14.32C18.2915 14.64 18.7022 14.8 19.2142 14.8C19.6195 14.8 19.9555 14.6987 20.2222 14.496C20.4995 14.2933 20.6649 14.0267 20.7182 13.696H22.3022C22.2595 14.1547 22.1102 14.5707 21.8542 14.944C21.5982 15.3173 21.2515 15.616 20.8142 15.84C20.3769 16.0533 19.8542 16.16 19.2462 16.16ZM17.5822 12.176H20.6862C20.6755 12.1013 20.6542 11.984 20.6222 11.824C20.5902 11.664 20.5209 11.4987 20.4142 11.328C20.3075 11.1573 20.1529 11.0133 19.9502 10.896C19.7475 10.7787 19.4862 10.72 19.1662 10.72C18.8462 10.72 18.5849 10.7733 18.3822 10.88C18.1795 10.9867 18.0249 11.12 17.9182 11.28C17.8115 11.44 17.7315 11.6 17.6782 11.76C17.6249 11.92 17.5929 12.0587 17.5822 12.176Z" fill="#08D8EF"/>
</svg>
